<svg width="640" height="420" viewBox="0 0 640 420" fill="none" xmlns="http://www.w3.org/2000/svg">
  <defs>
    <linearGradient id="sky" x1="0" y1="0" x2="640" y2="420" gradientUnits="userSpaceOnUse">
      <stop stop-color="#06152D"/>
      <stop offset="0.52" stop-color="#12365B"/>
      <stop offset="1" stop-color="#214F3B"/>
    </linearGradient>
    <linearGradient id="hill" x1="70" y1="120" x2="560" y2="410" gradientUnits="userSpaceOnUse">
      <stop stop-color="#245B59"/>
      <stop offset="1" stop-color="#8AB17D"/>
    </linearGradient>
    <filter id="beacon" x="-60%" y="-60%" width="220%" height="220%" color-interpolation-filters="sRGB">
      <feGaussianBlur stdDeviation="10" result="blur"/>
      <feColorMatrix in="blur" type="matrix" values="0 0 0 0 0.25 0 0 0 0 0.83 0 0 0 0 0.72 0 0 0 0.75 0"/>
      <feBlend in="SourceGraphic"/>
    </filter>
  </defs>
  <rect width="640" height="420" fill="url(#sky)"/>
  <path d="M0 308L82 240L150 276L235 198L330 256L430 164L520 244L640 172V420H0V308Z" fill="url(#hill)" opacity="0.95"/>
  <path d="M0 346L118 286L214 314L320 260L440 304L640 224V420H0V346Z" fill="#0D2F2D" opacity="0.5"/>
  <path d="M88 128H552" stroke="#D8FFF8" stroke-opacity="0.14" stroke-width="2"/>
  <path d="M88 168H552" stroke="#D8FFF8" stroke-opacity="0.1" stroke-width="2"/>
  <path d="M140 388C226 312 303 306 382 346C451 381 513 360 594 300" stroke="#BAF7D0" stroke-width="5" stroke-linecap="round" opacity="0.42"/>
  <circle cx="332" cy="214" r="74" stroke="#8CF2D2" stroke-width="2" opacity="0.42"/>
  <path d="M332 148V280M266 214H398" stroke="#8CF2D2" stroke-width="2" opacity="0.36"/>
  <circle cx="332" cy="214" r="8" fill="#EFFFF9" filter="url(#beacon)"/>
  <circle cx="246" cy="252" r="5" fill="#FDE68A"/>
  <circle cx="452" cy="242" r="5" fill="#FDE68A"/>
  <path d="M74 68H270" stroke="white" stroke-opacity="0.16" stroke-width="2"/>
  <path d="M74 90H218" stroke="white" stroke-opacity="0.16" stroke-width="2"/>
</svg>
